<svg id="Layer_1" data-name="Layer 1" xmlns="http://www.w3.org/2000/svg" viewBox="0 0 245.36409 199.7927"><defs><style>.cls-1,.cls-3,.cls-5{fill:#fff;}.cls-1{stroke:#fff;}.cls-1,.cls-2,.cls-3,.cls-4{stroke-miterlimit:10;}.cls-1,.cls-2,.cls-3{stroke-width:0.25px;}.cls-2,.cls-3,.cls-4{stroke:#000;}</style></defs><path class="cls-1" d="M242.53216,53.1173a35.47389,35.47389,0,1,0,35.86577,35.47161A35.67023,35.67023,0,0,0,242.53216,53.1173Zm0,58.40592c-11.86565,0-21.51946-10.28759-21.51946-22.93361,0-12.64579,9.65381-22.935,21.51946-22.935s21.51946,10.28922,21.51946,22.935C264.05162,101.23563,254.39781,111.52322,242.53216,111.52322Z" transform="translate(-33.15884 -52.9923)"/><path class="cls-2" d="M242.53216,65.6546c-11.86565,0-21.51946,10.28922-21.51946,22.935,0,12.646,9.65381,22.93361,21.51946,22.93361s21.51946-10.28759,21.51946-22.93361C264.05162,75.94382,254.39781,65.6546,242.53216,65.6546Z" transform="translate(-33.15884 -52.9923)"/><path class="cls-1" d="M69.14961,53.1173a35.47389,35.47389,0,1,0,35.86576,35.47161A35.67023,35.67023,0,0,0,69.14961,53.1173Zm0,58.40592c-11.86565,0-21.51946-10.28759-21.51946-22.93361,0-12.64579,9.65381-22.935,21.51946-22.935s21.51945,10.28922,21.51945,22.935C90.66906,101.23563,81.01525,111.52322,69.14961,111.52322Z" transform="translate(-33.15884 -52.9923)"/><path class="cls-2" d="M69.14961,65.6546c-11.86565,0-21.51946,10.28922-21.51946,22.935,0,12.646,9.65381,22.93361,21.51946,22.93361s21.51945-10.28759,21.51945-22.93361C90.66906,75.94382,81.01525,65.6546,69.14961,65.6546Z" transform="translate(-33.15884 -52.9923)"/><ellipse class="cls-3" cx="122.44116" cy="102.1477" rx="120" ry="97.52"/><path d="M154.83242,172.12364v-.0166c-.17456.00025-.32348.00757-.49634.0083-.17285-.00073-.322-.008-.49658-.0083v.0166c-27.29077.2107-31.47217,6.54859-27.21,11.97827,8.50977,10.84034,21.96875,11.885,27.14917,11.98609v.01294c.15942-.00025.36475-.00269.55737-.0044.19263.00171.39771.00415.55713.0044V196.088c5.18018-.10108,18.63916-1.14575,27.14893-11.98609C186.30435,178.67223,182.12319,172.33434,154.83242,172.12364Z" transform="translate(-33.15884 -52.9923)"/><path class="cls-4" d="M198.972,188.85155l-5.05193-.02618c.00831.2081.07237.40262.07237.61238,0,9.95447-9.46024,18.05325-21.08844,18.05325a22.89317,22.89317,0,0,1-14.97039-5.35964,18.49869,18.49869,0,0,1-3.46906-4.11136,18.30478,18.30478,0,0,1-3.38222,4.16007,22.73674,22.73674,0,0,1-15.31222,5.71653c-11.63067,0-21.0909-8.09878-21.0909-18.05325,0-.50634.12657-.98285.17461-1.47892l-5.0507-.02585c-.03664.507-.16937.98948-.16937,1.50477,0,12.94744,11.72429,23.48248,26.13636,23.48248a27.309,27.309,0,0,0,18.80345-7.328,27.29131,27.29131,0,0,0,18.33044,6.9224c14.40961,0,26.1339-10.535,26.1339-23.48247C199.03793,189.23694,198.97757,189.051,198.972,188.85155Z" transform="translate(-33.15884 -52.9923)"/><ellipse cx="206.6664" cy="148.06614" rx="28.08" ry="41.94" transform="translate(-77.32596 136.5121) rotate(-45.00037)"/><circle class="cls-5" cx="165.87909" cy="100.07348" r="18"/><circle cx="162.70135" cy="96.93872" r="13"/><ellipse cx="100.69537" cy="149.93102" rx="41.94" ry="28.08" transform="translate(-109.68286 62.12271) rotate(-44.99963)"/><circle class="cls-5" cx="75.165" cy="101.93835" r="18"/><circle cx="78.34273" cy="98.80359" r="13"/></svg>