<svg id="Layer_1" data-name="Layer 1" xmlns="http://www.w3.org/2000/svg" viewBox="0 0 75 75"><defs><style>.cls-1,.cls-3,.cls-5{fill:#fff;}.cls-1{stroke:#fff;}.cls-1,.cls-2,.cls-3,.cls-4{stroke-miterlimit:10;}.cls-1,.cls-2,.cls-3{stroke-width:0.25px;}.cls-2,.cls-3,.cls-4{stroke:#000;}</style></defs><circle cx="37.5" cy="37.5" r="37.5"/><path class="cls-1" d="M59.233,11.99433a8.86847,8.86847,0,1,0,8.96644,8.8679A8.91756,8.91756,0,0,0,59.233,11.99433Zm0,14.60147a5.57136,5.57136,0,0,1-5.37986-5.7334,5.39079,5.39079,0,1,1,10.75973,0A5.57137,5.57137,0,0,1,59.233,26.5958Z"/><path class="cls-2" d="M59.233,15.12865a5.57172,5.57172,0,0,0-5.37986,5.73375,5.39076,5.39076,0,1,0,10.75973,0A5.57173,5.57173,0,0,0,59.233,15.12865Z"/><path class="cls-1" d="M15.8874,11.99433a8.86847,8.86847,0,1,0,8.96644,8.8679A8.91756,8.91756,0,0,0,15.8874,11.99433Zm0,14.60147a5.57136,5.57136,0,0,1-5.37986-5.7334,5.57172,5.57172,0,0,1,5.37986-5.73375,5.57173,5.57173,0,0,1,5.37987,5.73375A5.57137,5.57137,0,0,1,15.8874,26.5958Z"/><path class="cls-2" d="M15.8874,15.12865a5.57172,5.57172,0,0,0-5.37986,5.73375,5.57136,5.57136,0,0,0,5.37986,5.7334,5.57137,5.57137,0,0,0,5.37987-5.7334A5.57173,5.57173,0,0,0,15.8874,15.12865Z"/><ellipse class="cls-3" cx="37.5" cy="37.5" rx="30" ry="24.38"/><path d="M37.30811,41.74591v-.00415c-.04364.00006-.08088.00189-.12409.00208-.04321-.00019-.0805-.002-.12414-.00208v.00415c-6.8227.05267-7.868,1.63715-6.80249,2.99457,2.12744,2.71008,5.49218,2.97125,6.78729,2.99652v.00323c.03985-.00006.09118-.00067.13934-.00109.04816.00042.09943.001.13928.00109V47.737c1.295-.02527,4.65979-.28644,6.78723-2.99652C45.17609,43.38306,44.1308,41.79858,37.30811,41.74591Z"/><path class="cls-4" d="M48.343,45.92789l-1.263-.00655c.00207.052.01809.10066.01809.1531,0,2.48861-2.36506,4.51331-5.27211,4.51331a5.72328,5.72328,0,0,1-3.7426-1.33991A4.62471,4.62471,0,0,1,37.21614,48.22a4.576,4.576,0,0,1-.84555,1.04,5.6842,5.6842,0,0,1-3.828,1.42913c-2.90767,0-5.27273-2.02469-5.27273-4.51331,0-.12659.03164-.24572.04365-.36973l-1.26267-.00646c-.00916.12675-.04234.24737-.04234.37619,0,3.23686,2.93107,5.87062,6.53409,5.87062a6.8273,6.8273,0,0,0,4.70086-1.832,6.82285,6.82285,0,0,0,4.58261,1.7306c3.6024,0,6.53347-2.63376,6.53347-5.87062C48.35948,46.02423,48.34439,45.97776,48.343,45.92789Z"/><ellipse cx="50.2666" cy="35.73154" rx="7.02" ry="10.485" transform="translate(-10.5432 46.00977) rotate(-45.00037)"/><circle class="cls-5" cx="48.35948" cy="36.98145" r="4.5"/><circle cx="47.56505" cy="36.19775" r="3.25"/><ellipse cx="23.77384" cy="36.19775" rx="10.485" ry="7.02" transform="translate(-18.63242 27.41245) rotate(-44.99963)"/><circle class="cls-5" cx="25.68096" cy="37.44766" r="4.5"/><circle cx="26.47539" cy="36.66397" r="3.25"/></svg>